# Blender 4.0.2
# www.blender.org
mtllib bone.mtl
o Bone00
v -0.154797 0.356352 -0.000000
v -0.019060 0.543717 0.133577
v -0.262423 0.470700 0.216134
v -0.412834 0.425572 -0.000000
v -0.262423 0.470700 -0.216134
v -0.019060 0.543717 -0.133577
v -0.193207 0.728737 0.216134
v -0.436570 0.655720 0.133577
v -0.436570 0.655720 -0.133577
v -0.193207 0.728737 -0.216135
v -0.042796 0.773865 -0.000000
v -0.300833 0.843085 -0.000000
v 0.010319 -0.587367 -0.146525
v 0.010483 0.539023 -0.148851
v 0.149673 -0.587367 -0.045279
v 0.152049 0.539023 -0.045998
v 0.096444 -0.587367 0.118542
v 0.097975 0.539023 0.120423
v -0.075807 -0.587367 0.118542
v -0.077010 0.539023 0.120423
v -0.129035 -0.587367 -0.045279
v -0.131083 0.539023 -0.045998
v 0.340999 0.363297 -0.000000
v 0.447093 0.579048 0.138807
v 0.210675 0.461498 0.224597
v 0.064557 0.388845 -0.000000
v 0.210675 0.461497 -0.224597
v 0.447093 0.579048 -0.138808
v 0.236219 0.737939 0.224597
v -0.000199 0.620389 0.138807
v -0.000199 0.620389 -0.138808
v 0.236219 0.737939 -0.224597
v 0.382337 0.810592 -0.000000
v 0.105895 0.836140 -0.000000
v -0.122082 -0.820217 0.000000
v -0.014091 -0.641391 0.120609
v -0.227548 -0.725453 0.195151
v -0.359475 -0.777408 0.000000
v -0.227548 -0.725453 -0.195151
v -0.014091 -0.641391 -0.120609
v -0.184742 -0.488060 0.195151
v -0.398200 -0.572122 0.120609
v -0.398200 -0.572122 -0.120609
v -0.184742 -0.488060 -0.195151
v -0.052815 -0.436105 0.000000
v -0.290209 -0.393296 0.000000
v 0.325478 -0.776425 0.000000
v 0.404669 -0.574259 0.125354
v 0.200784 -0.697889 0.202829
v 0.074773 -0.774299 0.000000
v 0.200784 -0.697889 -0.202829
v 0.404669 -0.574259 -0.125354
v 0.202907 -0.447185 0.202829
v -0.000978 -0.570816 0.125354
v -0.000978 -0.570816 -0.125354
v 0.202907 -0.447185 -0.202829
v 0.328918 -0.370776 0.000000
v 0.078213 -0.368649 0.000000
vn 0.4080 -0.7072 0.5774
vn 0.8098 -0.5867 -0.0000
vn -0.2420 -0.9023 0.3568
vn -0.2420 -0.9023 -0.3568
vn 0.4080 -0.7072 -0.5774
vn 0.9947 0.1026 -0.0000
vn 0.3446 -0.0924 0.9342
vn -0.7072 -0.4080 0.5774
vn -0.7072 -0.4080 -0.5774
vn 0.3446 -0.0924 -0.9342
vn 0.7072 0.4080 0.5774
vn -0.3446 0.0924 0.9342
vn -0.9947 -0.1026 -0.0000
vn -0.3446 0.0924 -0.9342
vn 0.7072 0.4080 -0.5774
vn 0.2420 0.9023 0.3568
vn -0.4080 0.7072 0.5774
vn -0.8098 0.5867 -0.0000
vn -0.4080 0.7072 -0.5774
vn 0.2420 0.9023 -0.3568
vn 0.5878 -0.0018 -0.8090
vn 0.9511 -0.0018 0.3090
vn -0.0000 -0.0017 1.0000
vn -0.0000 1.0000 -0.0000
vn -0.9511 -0.0015 0.3090
vn -0.5878 -0.0016 -0.8090
vn -0.0000 -1.0000 -0.0000
vn 0.5218 -0.6280 0.5774
vn 0.8974 -0.4413 -0.0000
vn -0.0860 -0.9302 0.3568
vn -0.0860 -0.9302 -0.3568
vn 0.5218 -0.6280 -0.5774
vn 0.9630 0.2693 -0.0000
vn 0.3553 -0.0328 0.9342
vn -0.6280 -0.5218 0.5774
vn -0.6280 -0.5218 -0.5774
vn 0.3553 -0.0328 -0.9342
vn 0.6280 0.5218 0.5774
vn -0.3553 0.0328 0.9342
vn -0.9630 -0.2693 -0.0000
vn -0.3553 0.0328 -0.9342
vn 0.6280 0.5218 -0.5774
vn 0.0860 0.9302 0.3568
vn -0.5218 0.6280 0.5774
vn -0.8974 0.4413 -0.0000
vn -0.5218 0.6280 -0.5774
vn 0.0860 0.9302 -0.3568
vn 0.4657 -0.6706 0.5774
vn 0.8560 -0.5169 -0.0000
vn -0.1658 -0.9193 0.3568
vn -0.1658 -0.9193 -0.3568
vn 0.4657 -0.6706 -0.5774
vn 0.9827 0.1854 -0.0000
vn 0.3512 -0.0633 0.9342
vn -0.6706 -0.4657 0.5774
vn -0.6706 -0.4657 -0.5774
vn 0.3512 -0.0633 -0.9342
vn 0.6706 0.4657 0.5774
vn -0.3512 0.0633 0.9342
vn -0.9827 -0.1854 -0.0000
vn -0.3512 0.0633 -0.9342
vn 0.6706 0.4657 -0.5774
vn 0.1658 0.9193 0.3568
vn -0.4657 0.6706 0.5774
vn -0.8560 0.5169 -0.0000
vn -0.4657 0.6706 -0.5774
vn 0.1658 0.9193 -0.3568
vn 0.5724 -0.5822 0.5774
vn 0.9311 -0.3647 -0.0000
vn -0.0079 -0.9341 0.3568
vn -0.0079 -0.9341 -0.3568
vn 0.5724 -0.5822 -0.5774
vn 0.9372 0.3489 -0.0000
vn 0.3568 -0.0030 0.9342
vn -0.5822 -0.5724 0.5774
vn -0.5822 -0.5724 -0.5774
vn 0.3568 -0.0030 -0.9342
vn 0.5822 0.5724 0.5774
vn -0.3568 0.0030 0.9342
vn -0.9372 -0.3489 -0.0000
vn -0.3568 0.0030 -0.9342
vn 0.5822 0.5724 -0.5774
vn 0.0079 0.9341 0.3568
vn -0.5724 0.5822 0.5774
vn -0.9311 0.3647 -0.0000
vn -0.5724 0.5822 -0.5774
vn 0.0079 0.9341 -0.3568
vt 0.085294 0.493646
vt 0.089942 0.501697
vt 0.080646 0.501697
vt 0.094590 0.493646
vt 0.099238 0.501697
vt 0.122479 0.493646
vt 0.127128 0.501697
vt 0.117831 0.501697
vt 0.113183 0.493646
vt 0.108535 0.501697
vt 0.103887 0.493646
vt 0.094590 0.509748
vt 0.085294 0.509748
vt 0.122479 0.509748
vt 0.113183 0.509748
vt 0.103887 0.509748
vt 0.075998 0.509748
vt 0.089942 0.517799
vt 0.080646 0.517799
vt 0.117831 0.517799
vt 0.108535 0.517799
vt 0.099238 0.517799
vt 0.100542 0.461450
vt 0.100542 0.497538
vt 0.086106 0.497538
vt 0.086106 0.461450
vt 0.071671 0.497538
vt 0.071671 0.461450
vt 0.057236 0.497538
vt 0.057236 0.461450
vt 0.062884 0.448759
vt 0.046409 0.460728
vt 0.029934 0.448759
vt 0.036227 0.429391
vt 0.056591 0.429391
vt 0.042800 0.497538
vt 0.042800 0.461450
vt 0.028365 0.497538
vt 0.028365 0.461450
vt 0.082497 0.460728
vt 0.098972 0.448759
vt 0.092679 0.429391
vt 0.072316 0.429391
vt 0.066023 0.448759
s 1
usemtl Material.001
f 1/1/1 2/2/1 3/3/1
f 2/2/2 1/4/2 6/5/2
f 1/6/3 3/7/3 4/8/3
f 1/9/4 4/8/4 5/10/4
f 1/11/5 5/10/5 6/5/5
f 2/2/6 6/5/6 11/12/6
f 3/3/7 2/2/7 7/13/7
f 4/8/8 3/7/8 8/14/8
f 5/10/9 4/8/9 9/15/9
f 6/5/10 5/10/10 10/16/10
f 2/2/11 11/12/11 7/13/11
f 3/3/12 7/13/12 8/17/12
f 4/8/13 8/14/13 9/15/13
f 5/10/14 9/15/14 10/16/14
f 6/5/15 10/16/15 11/12/15
f 7/13/16 11/12/16 12/18/16
f 8/17/17 7/13/17 12/19/17
f 9/15/18 8/14/18 12/20/18
f 10/16/19 9/15/19 12/21/19
f 11/12/20 10/16/20 12/22/20
f 13/23/21 14/24/21 16/25/21 15/26/21
f 15/26/22 16/25/22 18/27/22 17/28/22
f 17/28/23 18/27/23 20/29/23 19/30/23
f 16/31/24 14/32/24 22/33/24 20/34/24 18/35/24
f 19/30/25 20/29/25 22/36/25 21/37/25
f 21/37/26 22/36/26 14/38/26 13/39/26
f 13/40/27 15/41/27 17/42/27 19/43/27 21/44/27
f 23/1/28 24/2/28 25/3/28
f 24/2/29 23/4/29 28/5/29
f 23/6/30 25/7/30 26/8/30
f 23/9/31 26/8/31 27/10/31
f 23/11/32 27/10/32 28/5/32
f 24/2/33 28/5/33 33/12/33
f 25/3/34 24/2/34 29/13/34
f 26/8/35 25/7/35 30/14/35
f 27/10/36 26/8/36 31/15/36
f 28/5/37 27/10/37 32/16/37
f 24/2/38 33/12/38 29/13/38
f 25/3/39 29/13/39 30/17/39
f 26/8/40 30/14/40 31/15/40
f 27/10/41 31/15/41 32/16/41
f 28/5/42 32/16/42 33/12/42
f 29/13/43 33/12/43 34/18/43
f 30/17/44 29/13/44 34/19/44
f 31/15/45 30/14/45 34/20/45
f 32/16/46 31/15/46 34/21/46
f 33/12/47 32/16/47 34/22/47
f 35/1/48 36/2/48 37/3/48
f 36/2/49 35/4/49 40/5/49
f 35/6/50 37/7/50 38/8/50
f 35/9/51 38/8/51 39/10/51
f 35/11/52 39/10/52 40/5/52
f 36/2/53 40/5/53 45/12/53
f 37/3/54 36/2/54 41/13/54
f 38/8/55 37/7/55 42/14/55
f 39/10/56 38/8/56 43/15/56
f 40/5/57 39/10/57 44/16/57
f 36/2/58 45/12/58 41/13/58
f 37/3/59 41/13/59 42/17/59
f 38/8/60 42/14/60 43/15/60
f 39/10/61 43/15/61 44/16/61
f 40/5/62 44/16/62 45/12/62
f 41/13/63 45/12/63 46/18/63
f 42/17/64 41/13/64 46/19/64
f 43/15/65 42/14/65 46/20/65
f 44/16/66 43/15/66 46/21/66
f 45/12/67 44/16/67 46/22/67
f 47/1/68 48/2/68 49/3/68
f 48/2/69 47/4/69 52/5/69
f 47/6/70 49/7/70 50/8/70
f 47/9/71 50/8/71 51/10/71
f 47/11/72 51/10/72 52/5/72
f 48/2/73 52/5/73 57/12/73
f 49/3/74 48/2/74 53/13/74
f 50/8/75 49/7/75 54/14/75
f 51/10/76 50/8/76 55/15/76
f 52/5/77 51/10/77 56/16/77
f 48/2/78 57/12/78 53/13/78
f 49/3/79 53/13/79 54/17/79
f 50/8/80 54/14/80 55/15/80
f 51/10/81 55/15/81 56/16/81
f 52/5/82 56/16/82 57/12/82
f 53/13/83 57/12/83 58/18/83
f 54/17/84 53/13/84 58/19/84
f 55/15/85 54/14/85 58/20/85
f 56/16/86 55/15/86 58/21/86
f 57/12/87 56/16/87 58/22/87
