# Blender 4.0.2
# www.blender.org
mtllib darkBloodDrop.mtl
o BloodDrop_Dark
v -0.000000 -0.250700 -0.585573
v -0.000000 0.810535 -0.000000
v 0.556913 -0.250700 -0.180952
v 0.344191 -0.250700 0.473739
v -0.344191 -0.250700 0.473739
v -0.556913 -0.250700 -0.180952
v 0.000000 -1.039000 0.000000
v -0.000000 -0.784257 -0.495068
v 0.470838 -0.784257 -0.152984
v 0.290994 -0.784257 0.400519
v -0.290994 -0.784257 0.400519
v -0.470838 -0.784257 -0.152984
vn 0.5367 0.4076 -0.7388
vn 0.8685 0.4076 0.2822
vn -0.0000 0.4076 0.9131
vn -0.8685 0.4076 0.2822
vn -0.5367 0.4076 -0.7388
vn 0.9422 -0.1360 0.3061
vn -0.5823 -0.1360 -0.8015
vn 0.5823 -0.1360 -0.8015
vn -0.0000 -0.1360 0.9907
vn -0.9422 -0.1360 0.3061
vn 0.3155 -0.8438 -0.4342
vn 0.5104 -0.8438 0.1658
vn -0.0000 -0.8438 0.5367
vn -0.5104 -0.8438 0.1658
vn -0.3155 -0.8438 -0.4342
vt 0.941307 0.681229
vt 0.920253 0.733864
vt 0.920253 0.681229
vt 0.899199 0.733864
vt 0.899199 0.681229
vt 0.878145 0.733864
vt 0.878145 0.681229
vt 0.857091 0.733864
vt 0.857091 0.681229
vt 0.836037 0.733864
vt 0.836037 0.681229
vt 0.914989 0.654109
vt 0.914989 0.680176
vt 0.939017 0.662719
vt 0.914225 0.654664
vt 0.929839 0.634472
vt 0.914517 0.655562
vt 0.900139 0.634472
vt 0.915461 0.655562
vt 0.890961 0.662719
vt 0.915753 0.654664
s 1
usemtl Material.002
f 1/1/1 2/2/1 3/3/1
f 3/3/2 2/4/2 4/5/2
f 4/5/3 2/6/3 5/7/3
f 5/7/4 2/8/4 6/9/4
f 6/9/5 2/10/5 1/11/5
f 3/3/6 4/5/6 10/5/6 9/3/6
f 6/9/7 1/11/7 8/11/7 12/9/7
f 1/1/8 3/3/8 9/3/8 8/1/8
f 4/5/9 5/7/9 11/7/9 10/5/9
f 5/7/10 6/9/10 12/9/10 11/7/10
f 7/12/11 8/13/11 9/14/11
f 7/15/12 9/14/12 10/16/12
f 7/17/13 10/16/13 11/18/13
f 7/19/14 11/18/14 12/20/14
f 7/21/15 12/20/15 8/13/15
