# Blender 4.0.2
# www.blender.org
mtllib lightBloodDrop.mtl
o BloodDrop_Light
v -0.000000 -0.124188 -0.360406
v -0.000000 0.551976 -0.000000
v 0.342766 -0.124188 -0.111371
v 0.211841 -0.124188 0.291574
v -0.211841 -0.124188 0.291574
v -0.342766 -0.124188 -0.111371
v 0.000000 -0.943954 0.000000
v -0.000000 -0.672668 -0.353147
v 0.335863 -0.672668 -0.109128
v 0.207575 -0.672667 0.285702
v -0.207575 -0.672667 0.285702
v -0.335863 -0.672668 -0.109128
vn 0.5397 0.3960 -0.7429
vn 0.8733 0.3960 0.2838
vn -0.0000 0.3960 0.9183
vn -0.8733 0.3960 0.2838
vn -0.5397 0.3960 -0.7429
vn 0.9510 -0.0107 0.3090
vn -0.5878 -0.0107 -0.8090
vn 0.5878 -0.0107 -0.8090
vn -0.0000 -0.0107 0.9999
vn -0.9510 -0.0107 0.3090
vn 0.4047 -0.7252 -0.5571
vn 0.6549 -0.7252 0.2128
vn -0.0000 -0.7252 0.6886
vn -0.6549 -0.7252 0.2128
vn -0.4047 -0.7252 -0.5571
vt 0.759666 0.706620
vt 0.738612 0.759254
vt 0.738612 0.706620
vt 0.717558 0.759254
vt 0.717558 0.706620
vt 0.696504 0.759254
vt 0.696504 0.706620
vt 0.675450 0.759254
vt 0.675450 0.706620
vt 0.654397 0.759254
vt 0.654397 0.706620
vt 0.733349 0.679499
vt 0.733349 0.705567
vt 0.757377 0.688110
vt 0.732585 0.680054
vt 0.748199 0.659863
vt 0.732876 0.680952
vt 0.718498 0.659863
vt 0.733821 0.680952
vt 0.709320 0.688110
vt 0.734112 0.680054
s 1
usemtl Material.001
f 1/1/1 2/2/1 3/3/1
f 3/3/2 2/4/2 4/5/2
f 4/5/3 2/6/3 5/7/3
f 5/7/4 2/8/4 6/9/4
f 6/9/5 2/10/5 1/11/5
f 3/3/6 4/5/6 10/5/6 9/3/6
f 6/9/7 1/11/7 8/11/7 12/9/7
f 1/1/8 3/3/8 9/3/8 8/1/8
f 4/5/9 5/7/9 11/7/9 10/5/9
f 5/7/10 6/9/10 12/9/10 11/7/10
f 7/12/11 8/13/11 9/14/11
f 7/15/12 9/14/12 10/16/12
f 7/17/13 10/16/13 11/18/13
f 7/19/14 11/18/14 12/20/14
f 7/21/15 12/20/15 8/13/15
